<svg width="363" height="52" viewBox="0 0 363 52" fill="none" xmlns="http://www.w3.org/2000/svg">
<path d="M16.3409 42.5H4.75C2.12665 42.5 0 44.6266 0 47.25C0 49.8734 2.12664 52 4.74999 52H357.75C360.373 52 362.5 49.8734 362.5 47.25C362.5 44.6266 360.373 42.5 357.75 42.5H346.159C342.493 42.5 338.934 41.2673 336.053 39L297.386 8.56748C290.334 3.01753 281.621 0 272.647 0H89.8529C80.8791 0 72.166 3.01753 65.1143 8.56748L26.4471 39C23.5663 41.2673 20.0068 42.5 16.3409 42.5Z" fill="#F1F0EB"/>
<path d="M136.518 31.994V35H124.566V22.994H128.22V31.994H136.518ZM151.95 22.994V25.73H142.212V27.782H151.302V30.158H142.212V32.282H151.95V35H138.558V22.994H151.95ZM158.908 35V26H153.544V22.994H167.908V26H162.562V35H158.908ZM170.061 29.546H169.791C169.515 29.546 169.251 29.528 168.999 29.492V27.62L169.377 27.656C169.797 27.656 170.091 27.548 170.259 27.332C170.427 27.104 170.511 26.774 170.511 26.342H169.503V22.994H173.121V26.342C173.121 27.494 172.905 28.316 172.473 28.808C172.041 29.3 171.237 29.546 170.061 29.546ZM179.21 31.364C179.21 31.856 179.372 32.168 179.696 32.3C180.032 32.42 180.494 32.48 181.082 32.48L182.81 32.498L185.258 32.426C185.93 32.426 186.368 32.342 186.572 32.174C186.776 32.006 186.878 31.742 186.878 31.382C186.878 31.058 186.758 30.8 186.518 30.608C186.29 30.416 185.846 30.32 185.186 30.32H184.592L178.58 30.194C177.452 30.194 176.654 29.912 176.186 29.348C175.73 28.772 175.502 27.896 175.502 26.72C175.502 25.724 175.646 24.95 175.934 24.398C176.234 23.846 176.768 23.474 177.536 23.282C178.316 23.078 179.33 22.958 180.578 22.922C181.838 22.886 182.684 22.868 183.116 22.868L185.672 22.904C186.692 22.904 187.514 22.988 188.138 23.156C188.762 23.312 189.2 23.606 189.452 24.038C189.716 24.47 189.884 24.86 189.956 25.208C190.028 25.556 190.064 26.036 190.064 26.648H186.482C186.482 26.228 186.356 25.934 186.104 25.766C185.864 25.598 185.522 25.514 185.078 25.514L183.314 25.496L180.524 25.586C180.152 25.586 179.834 25.658 179.57 25.802C179.318 25.934 179.192 26.162 179.192 26.486C179.192 26.93 179.342 27.224 179.642 27.368C179.954 27.5 180.374 27.566 180.902 27.566H181.28L183.728 27.602L186.14 27.62C187.688 27.62 188.81 27.866 189.506 28.358C190.214 28.838 190.568 29.81 190.568 31.274C190.568 32.69 190.25 33.662 189.614 34.19C188.99 34.718 187.952 34.982 186.5 34.982L181.82 35.108L179.372 35.054C178.076 35.054 177.122 34.844 176.51 34.424C175.898 34.004 175.592 33.158 175.592 31.886V31.166H179.192L179.21 31.364ZM213.381 28.232L213.399 30.752C213.399 32.228 213.141 33.326 212.625 34.046C212.121 34.754 211.131 35.108 209.655 35.108L207.747 35.126L205.569 35.108L203.679 35.09C202.299 35.09 201.201 35 200.385 34.82C199.581 34.628 198.939 34.214 198.459 33.578C197.991 32.942 197.757 31.97 197.757 30.662L197.721 29.15C197.721 26.81 198.009 25.19 198.585 24.29C199.161 23.39 200.517 22.94 202.653 22.94L205.389 22.886L206.397 22.868L208.845 22.922C210.429 22.922 211.575 23.198 212.283 23.75C213.003 24.29 213.363 25.34 213.363 26.9V27.116H209.781C209.781 26.828 209.739 26.582 209.655 26.378C209.571 26.174 209.415 26.03 209.187 25.946C208.959 25.862 208.737 25.814 208.521 25.802C208.317 25.778 208.017 25.766 207.621 25.766L203.391 25.748C202.527 25.748 201.981 25.958 201.753 26.378C201.525 26.798 201.411 27.506 201.411 28.502V29.618C201.411 30.446 201.525 31.064 201.753 31.472C201.981 31.868 202.305 32.096 202.725 32.156C203.145 32.204 203.469 32.234 203.697 32.246C203.925 32.258 204.213 32.264 204.561 32.264L207.819 32.282C208.431 32.282 208.911 32.18 209.259 31.976C209.619 31.772 209.799 31.388 209.799 30.824L209.781 30.482H205.155V28.232H213.381ZM223.994 22.868L226.91 22.886C229.046 22.886 230.504 23.24 231.284 23.948C232.076 24.656 232.472 26.072 232.472 28.196V28.772C232.472 31.268 232.16 32.942 231.536 33.794C230.912 34.634 229.334 35.054 226.802 35.054L224.048 35.108L222.896 35.126L220.412 35.036C219.02 35.036 217.946 34.724 217.19 34.1C216.434 33.464 216.056 32.444 216.056 31.04L216.02 28.826C216.02 26.39 216.332 24.8 216.956 24.056C217.58 23.3 219.062 22.922 221.402 22.922L223.994 22.868ZM222.014 32.138L223.976 32.174L225.848 32.156C226.88 32.156 227.618 32.048 228.062 31.832C228.518 31.604 228.746 31.052 228.746 30.176L228.782 28.556C228.782 28.004 228.746 27.536 228.674 27.152C228.614 26.756 228.482 26.468 228.278 26.288C228.074 26.096 227.768 25.97 227.36 25.91C226.964 25.85 226.538 25.82 226.082 25.82L222.446 25.838C221.618 25.838 220.988 25.922 220.556 26.09C220.124 26.258 219.872 26.618 219.8 27.17C219.74 27.71 219.71 28.16 219.71 28.52V28.844V29.33C219.71 30.434 219.836 31.178 220.088 31.562C220.352 31.946 220.994 32.138 222.014 32.138Z" fill="black"/>
</svg>
